<?xml version="1.0" encoding="UTF-8" standalone="no"?>
<!DOCTYPE svg PUBLIC "-//W3C//DTD SVG 1.1//EN"
 "http://www.w3.org/Graphics/SVG/1.1/DTD/svg11.dtd">
<!-- Generated by graphviz version 2.28.0 (20140111.2315)
 -->
<!-- Title: G Pages: 1 -->
<svg width="702pt" height="452pt"
 viewBox="0.00 0.00 702.00 452.00" xmlns="http://www.w3.org/2000/svg" xmlns:xlink="http://www.w3.org/1999/xlink">
<g id="graph0" class="graph" transform="scale(1 1) rotate(0) translate(4 448)">
<title>G</title>
<polygon fill="white" stroke="none" points="-4,4 -4,-448 698,-448 698,4 -4,4"/>
<g id="clust1" class="cluster"><title>cluster_computer</title>
<polygon fill="#ccf0ff" stroke="#ccf0ff" points="8,-8 8,-436 482,-436 482,-8 8,-8"/>
<text text-anchor="start" x="185.312" y="-420.4" font-family="overpass" font-weight="bold" font-size="14.00">YOUR COMPUTER</text>
<text text-anchor="start" x="243.25" y="-406.4" font-family="overpass" font-weight="bold" font-size="14.00"> </text>
</g>
<g id="clust2" class="cluster"><title>cluster_file_conversion</title>
<polygon fill="#ccf0ff" stroke="#ccf0ff" points="16,-209 16,-392 474,-392 474,-209 16,-209"/>
</g>
<g id="clust3" class="cluster"><title>cluster_rmd</title>
<polygon fill="#ccf0ff" stroke="#ccf0ff" points="24,-217 24,-382 136,-382 136,-217 24,-217"/>
<text text-anchor="middle" x="80" y="-365.4" font-family="Ubuntu Mono" font-size="14.00">mypost.Rmd</text>
</g>
<g id="clust4" class="cluster"><title>cluster_md</title>
<polygon fill="#ccf0ff" stroke="#ccf0ff" points="182,-218 182,-381 294,-381 294,-218 182,-218"/>
<text text-anchor="middle" x="238" y="-364.4" font-family="Ubuntu Mono" font-size="14.00">mypost.md</text>
</g>
<g id="clust5" class="cluster"><title>cluster_local_html</title>
<polygon fill="#ccf0ff" stroke="#ccf0ff" points="346,-217 346,-384 466,-384 466,-217 346,-217"/>
<text text-anchor="middle" x="406" y="-367.4" font-family="Ubuntu Mono" font-size="14.00">mypost.html</text>
</g>
<g id="clust6" class="cluster"><title>cluster_bells_l</title>
<polygon fill="#ccf0ff" stroke="#ccf0ff" points="203,-16 203,-201 273,-201 273,-16 203,-16"/>
<text text-anchor="middle" x="238" y="-184.4" font-family="Ubuntu Mono" font-size="14.00">Assets</text>
</g>
<g id="clust7" class="cluster"><title>cluster_internet</title>
<polygon fill="#cdffcc" stroke="#cdffcc" points="534,-8 534,-436 686,-436 686,-8 534,-8"/>
<text text-anchor="start" x="579.092" y="-420.4" font-family="overpass" font-weight="bold" font-size="14.00">THE WEB</text>
<text text-anchor="start" x="586.091" y="-406.4" font-family="overpass" font-weight="bold" font-size="14.00">(e.g. S3)</text>
</g>
<g id="clust8" class="cluster"><title>cluster_hosted_files</title>
<polygon fill="#cdffcc" stroke="#cdffcc" points="542,-209 542,-392 678,-392 678,-209 542,-209"/>
</g>
<g id="clust9" class="cluster"><title>cluster_hosted_html</title>
<polygon fill="#cdffcc" stroke="#cdffcc" points="550,-217 550,-384 670,-384 670,-217 550,-217"/>
<text text-anchor="middle" x="610" y="-367.4" font-family="Ubuntu Mono" font-size="14.00">mypost.html</text>
</g>
<g id="clust10" class="cluster"><title>cluster_bells_h</title>
<polygon fill="#cdffcc" stroke="#cdffcc" points="575,-16 575,-201 645,-201 645,-16 575,-16"/>
<text text-anchor="middle" x="610" y="-184.4" font-family="Ubuntu Mono" font-size="14.00">Assets</text>
</g>
<!-- a -->
<g id="node1" class="node"><title>a</title>
<polygon fill="white" stroke="#7f7f7f" points="121.443,-348.601 32.5575,-348.601 32.5575,-225.399 127.443,-225.399 127.443,-342.601 121.443,-348.601"/>
<polyline fill="none" stroke="#7f7f7f" points="121.443,-348.601 121.443,-342.601 "/>
<polyline fill="none" stroke="#7f7f7f" points="127.443,-342.601 121.443,-342.601 "/>
<text text-anchor="start" x="40.5288" y="-338.5" font-family="Ubuntu Mono" font-size="7.00">&#45;&#45;&#45;</text>
<text text-anchor="start" x="40.5288" y="-330.1" font-family="Ubuntu Mono" font-size="7.00">layout: post</text>
<text text-anchor="start" x="40.5288" y="-321.7" font-family="Ubuntu Mono" font-size="7.00">title: My Cool New Post &#160;&#160;&#160;&#160;&#160;</text>
<text text-anchor="start" x="40.5288" y="-313.3" font-family="Ubuntu Mono" font-size="7.00">&#45;&#45;&#45;</text>
<text text-anchor="start" x="40.5288" y="-296.9" font-family="Ubuntu Mono" font-size="7.00">## How I made a chart</text>
<text text-anchor="start" x="40.5288" y="-280.5" font-family="Ubuntu Mono" font-size="7.00">This is *fantastic*!</text>
<text text-anchor="start" x="40.5288" y="-264.1" font-family="Ubuntu Mono" font-size="7.00">```{r}</text>
<text text-anchor="start" x="40.5288" y="-255.7" font-family="Ubuntu Mono" font-size="7.00">plot(1:10)</text>
<text text-anchor="start" x="40.5288" y="-247.3" font-family="Ubuntu Mono" font-size="7.00">```</text>
</g>
<!-- b -->
<g id="node2" class="node"><title>b</title>
<polygon fill="white" stroke="#7f7f7f" points="279.443,-348.3 190.557,-348.3 190.557,-225.7 285.443,-225.7 285.443,-342.3 279.443,-348.3"/>
<polyline fill="none" stroke="#7f7f7f" points="279.443,-348.3 279.443,-342.3 "/>
<polyline fill="none" stroke="#7f7f7f" points="285.443,-342.3 279.443,-342.3 "/>
<text text-anchor="start" x="198.529" y="-338.1" font-family="Ubuntu Mono" font-size="7.00">&#45;&#45;&#45;</text>
<text text-anchor="start" x="198.529" y="-329.7" font-family="Ubuntu Mono" font-size="7.00">layout: post</text>
<text text-anchor="start" x="198.529" y="-321.3" font-family="Ubuntu Mono" font-size="7.00">title: My Cool New Post &#160;&#160;&#160;&#160;&#160;</text>
<text text-anchor="start" x="198.529" y="-312.9" font-family="Ubuntu Mono" font-size="7.00">&#45;&#45;&#45;</text>
<text text-anchor="start" x="198.529" y="-296.5" font-family="Ubuntu Mono" font-size="7.00">## How I made a chart</text>
<text text-anchor="start" x="198.529" y="-280.1" font-family="Ubuntu Mono" font-size="7.00">This is *fantastic*!</text>
<text text-anchor="start" x="198.529" y="-271.7" font-family="Ubuntu Mono" font-size="7.00">[!plot](img/plot.png)</text>
</g>
<!-- a&#45;&gt;b -->
<g id="edge1" class="edge"><title>a:e&#45;&gt;b:w</title>
<path fill="none" stroke="black" d="M129,-287C151.917,-287 160.063,-287 178.825,-287"/>
<polygon fill="black" stroke="black" points="179,-290.5 189,-287 179,-283.5 179,-290.5"/>
<text text-anchor="middle" x="159" y="-291.2" font-family="Ubuntu Mono" font-size="14.00">knitr</text>
</g>
<!-- img_l -->
<g id="node5" class="node"><title>img_l</title>
<polygon fill="white" stroke="#7f7f7f" points="265,-114 262,-118 241,-118 238,-114 211,-114 211,-78 265,-78 265,-114"/>
<text text-anchor="start" x="219" y="-93.9" font-family="Ubuntu Mono" font-size="7.00">img</text>
</g>
<!-- a&#45;&gt;img_l -->
<g id="edge2" class="edge"><title>a:e&#45;&gt;img_l:w</title>
<path fill="none" stroke="black" d="M129,-287C167.3,-287 161.718,-155.489 182,-123 189.009,-111.772 191.565,-101.91 200.137,-97.904"/>
<polygon fill="black" stroke="black" points="200.845,-101.332 210,-96 199.518,-94.4589 200.845,-101.332"/>
</g>
<!-- c -->
<g id="node3" class="node"><title>c</title>
<polygon fill="white" stroke="#7f7f7f" points="451.429,-350.601 354.571,-350.601 354.571,-225.399 457.429,-225.399 457.429,-344.601 451.429,-350.601"/>
<polyline fill="none" stroke="#7f7f7f" points="451.429,-350.601 451.429,-344.601 "/>
<polyline fill="none" stroke="#7f7f7f" points="457.429,-344.601 451.429,-344.601 "/>
<text text-anchor="start" x="362.536" y="-340.5" font-family="Ubuntu Mono" font-size="7.00">&lt;html&gt;</text>
<text text-anchor="start" x="362.536" y="-332.1" font-family="Ubuntu Mono" font-size="7.00">&lt;head&gt;</text>
<text text-anchor="start" x="362.536" y="-323.7" font-family="Ubuntu Mono" font-size="7.00">&lt;js,css,menus,etc.&gt;</text>
<text text-anchor="start" x="362.536" y="-315.3" font-family="Ubuntu Mono" font-size="7.00">&lt;body&gt;</text>
<text text-anchor="start" x="362.536" y="-306.9" font-family="Ubuntu Mono" font-size="7.00">&lt;h1&gt;My Cool New Post&lt;/h1&gt;</text>
<text text-anchor="start" x="362.536" y="-298.5" font-family="Ubuntu Mono" font-size="7.00">&lt;h2&gt;How I made a chart&lt;/h2&gt;</text>
<text text-anchor="start" x="362.536" y="-290.1" font-family="Ubuntu Mono" font-size="7.00">&lt;br&gt;</text>
<text text-anchor="start" x="362.536" y="-281.7" font-family="Ubuntu Mono" font-size="7.00">&lt;h2&gt;How I made a chart&lt;/h2&gt;</text>
<text text-anchor="start" x="362.536" y="-273.3" font-family="Ubuntu Mono" font-size="7.00">&lt;p&gt;&lt;br&gt;</text>
<text text-anchor="start" x="362.536" y="-264.9" font-family="Ubuntu Mono" font-size="7.00">This is &lt;em&gt;fantastic&lt;/em&gt;!</text>
<text text-anchor="start" x="362.536" y="-256.5" font-family="Ubuntu Mono" font-size="7.00">&lt;/p&gt;&lt;br&gt;</text>
<text text-anchor="start" x="362.536" y="-248.1" font-family="Ubuntu Mono" font-size="7.00">&lt;figure&gt;</text>
<text text-anchor="start" x="362.536" y="-239.7" font-family="Ubuntu Mono" font-size="7.00">&lt;img src=img/plot.png/&gt;</text>
<text text-anchor="start" x="362.536" y="-231.3" font-family="Ubuntu Mono" font-size="7.00">...</text>
</g>
<!-- b&#45;&gt;c -->
<g id="edge3" class="edge"><title>b:e&#45;&gt;c:w</title>
<path fill="none" stroke="black" d="M287,-287C313.058,-287 322.01,-287.766 343.792,-287.957"/>
<polygon fill="black" stroke="black" points="343.985,-291.458 354,-288 344.015,-284.458 343.985,-291.458"/>
<text text-anchor="middle" x="320" y="-291.2" font-family="Ubuntu Mono" font-size="14.00">jekyll</text>
</g>
<!-- d -->
<g id="node4" class="node"><title>d</title>
<polygon fill="white" stroke="#7f7f7f" points="655.429,-350.601 558.571,-350.601 558.571,-225.399 661.429,-225.399 661.429,-344.601 655.429,-350.601"/>
<polyline fill="none" stroke="#7f7f7f" points="655.429,-350.601 655.429,-344.601 "/>
<polyline fill="none" stroke="#7f7f7f" points="661.429,-344.601 655.429,-344.601 "/>
<text text-anchor="start" x="566.536" y="-340.5" font-family="Ubuntu Mono" font-size="7.00">&lt;html&gt;</text>
<text text-anchor="start" x="566.536" y="-332.1" font-family="Ubuntu Mono" font-size="7.00">&lt;head&gt;</text>
<text text-anchor="start" x="566.536" y="-323.7" font-family="Ubuntu Mono" font-size="7.00">&lt;js,css,menus,etc.&gt;</text>
<text text-anchor="start" x="566.536" y="-315.3" font-family="Ubuntu Mono" font-size="7.00">&lt;body&gt;</text>
<text text-anchor="start" x="566.536" y="-306.9" font-family="Ubuntu Mono" font-size="7.00">&lt;h1&gt;My Cool New Post&lt;/h1&gt;</text>
<text text-anchor="start" x="566.536" y="-298.5" font-family="Ubuntu Mono" font-size="7.00">&lt;h2&gt;How I made a chart&lt;/h2&gt;</text>
<text text-anchor="start" x="566.536" y="-290.1" font-family="Ubuntu Mono" font-size="7.00">&lt;br&gt;</text>
<text text-anchor="start" x="566.536" y="-281.7" font-family="Ubuntu Mono" font-size="7.00">&lt;h2&gt;How I made a chart&lt;/h2&gt;</text>
<text text-anchor="start" x="566.536" y="-273.3" font-family="Ubuntu Mono" font-size="7.00">&lt;p&gt;</text>
<text text-anchor="start" x="566.536" y="-264.9" font-family="Ubuntu Mono" font-size="7.00">This is &lt;em&gt;fantastic&lt;/em&gt;!</text>
<text text-anchor="start" x="566.536" y="-256.5" font-family="Ubuntu Mono" font-size="7.00">&lt;/p&gt;&lt;br&gt;</text>
<text text-anchor="start" x="566.536" y="-248.1" font-family="Ubuntu Mono" font-size="7.00">&lt;figure&gt;</text>
<text text-anchor="start" x="566.536" y="-239.7" font-family="Ubuntu Mono" font-size="7.00">&lt;img src=img/plot.png/&gt;</text>
<text text-anchor="start" x="566.536" y="-231.3" font-family="Ubuntu Mono" font-size="7.00">...</text>
</g>
<!-- c&#45;&gt;d -->
<g id="edge4" class="edge"><title>c&#45;&gt;d</title>
<path fill="none" stroke="black" d="M457.452,-288C485.049,-288 519.429,-288 548.464,-288"/>
<polygon fill="black" stroke="black" points="548.491,-291.5 558.491,-288 548.491,-284.5 548.491,-291.5"/>
<text text-anchor="middle" x="508" y="-292.2" font-family="Ubuntu Mono" font-size="14.00">awscli</text>
</g>
<!-- img_h -->
<g id="node6" class="node"><title>img_h</title>
<polygon fill="white" stroke="#7f7f7f" points="637,-114 634,-118 613,-118 610,-114 583,-114 583,-78 637,-78 637,-114"/>
<text text-anchor="start" x="591" y="-93.9" font-family="Ubuntu Mono" font-size="7.00">img</text>
</g>
<!-- img_l&#45;&gt;img_h -->
<g id="edge5" class="edge"><title>img_l&#45;&gt;img_h</title>
<path fill="none" stroke="black" d="M265.018,-96C329.612,-96 497.467,-96 572.19,-96"/>
<polygon fill="black" stroke="black" points="572.516,-99.5001 582.516,-96 572.516,-92.5001 572.516,-99.5001"/>
</g>
<!-- tmp_l -->
<g id="node7" class="node"><title>tmp_l</title>
<polygon fill="white" stroke="#7f7f7f" points="265,-168 262,-172 241,-172 238,-168 211,-168 211,-132 265,-132 265,-168"/>
<text text-anchor="start" x="219" y="-147.9" font-family="Ubuntu Mono" font-size="7.00">_layouts</text>
</g>
<!-- tmp_l&#45;&gt;c -->
<g id="edge6" class="edge"><title>tmp_l&#45;&gt;c:w</title>
<path fill="none" stroke="black" d="M254.786,-168.089C265.856,-180.843 280.95,-198.367 294,-214 305.553,-227.84 325.587,-271.77 344.354,-284.507"/>
<polygon fill="black" stroke="black" points="343.406,-287.886 354,-288 345.789,-281.305 343.406,-287.886"/>
</g>
<!-- dummy_shape -->
<g id="node10" class="node"><title>dummy_shape</title>
<polygon fill="none" stroke="none" points="637,-168 634,-172 613,-172 610,-168 583,-168 583,-132 637,-132 637,-168"/>
<text text-anchor="start" x="591" y="-147.9" font-family="Ubuntu Mono" font-size="7.00"> </text>
</g>
<!-- tmp_l&#45;&gt;dummy_shape -->
<g id="edge7" class="edge"><title>tmp_l&#45;&gt;dummy_shape</title>
<path fill="none" stroke="none" d="M265.018,-150C329.612,-150 497.467,-150 572.19,-150"/>
<polygon fill="none" stroke="none" points="572.516,-153.5 582.516,-150 572.516,-146.5 572.516,-153.5"/>
</g>
<!-- ass_l -->
<g id="node8" class="node"><title>ass_l</title>
<polygon fill="white" stroke="#7f7f7f" points="265,-60 262,-64 241,-64 238,-60 211,-60 211,-24 265,-24 265,-60"/>
<text text-anchor="start" x="219" y="-39.9" font-family="Ubuntu Mono" font-size="7.00">js/css</text>
</g>
<!-- ass_h -->
<g id="node9" class="node"><title>ass_h</title>
<polygon fill="white" stroke="#7f7f7f" points="637,-60 634,-64 613,-64 610,-60 583,-60 583,-24 637,-24 637,-60"/>
<text text-anchor="start" x="591" y="-39.9" font-family="Ubuntu Mono" font-size="7.00">js/css</text>
</g>
<!-- ass_l&#45;&gt;ass_h -->
<g id="edge8" class="edge"><title>ass_l&#45;&gt;ass_h</title>
<path fill="none" stroke="black" d="M265.018,-42C329.612,-42 497.467,-42 572.19,-42"/>
<polygon fill="black" stroke="black" points="572.516,-45.5001 582.516,-42 572.516,-38.5001 572.516,-45.5001"/>
</g>
<!-- test -->
<g id="node11" class="node"><title>test</title>
<ellipse fill="white" stroke="#7f7f7f" cx="80" cy="-444" rx="0.36" ry="0.36"/>
</g>
</g>
</svg>

